<svg width="238" height="174" viewBox="0 0 238 174" fill="none" xmlns="http://www.w3.org/2000/svg">
<g clip-path="url(#clip0)">
<path d="M231.556 173.616L231.909 173.608C231.773 169.228 231.354 164.864 230.657 160.55C229.13 151.316 226.592 145.251 223.114 142.524L222.911 142.847C231.038 149.216 231.552 173.372 231.556 173.616Z" fill="#F1F1F1"/>
<path d="M227.145 173.521L227.498 173.514C227.49 173.077 227.27 162.795 223.643 159.953L223.44 160.275C226.921 163.003 227.143 173.417 227.145 173.521Z" fill="#F1F1F1"/>
<path d="M220.903 142.882C221.878 142.882 222.668 142 222.668 140.913C222.668 139.825 221.878 138.943 220.903 138.943C219.929 138.943 219.138 139.825 219.138 140.913C219.138 142 219.929 142.882 220.903 142.882Z" fill="#F1F1F1"/>
<path d="M221.777 159.823C222.752 159.823 223.542 158.941 223.542 157.853C223.542 156.765 222.752 155.883 221.777 155.883C220.802 155.883 220.012 156.765 220.012 157.853C220.012 158.941 220.802 159.823 221.777 159.823Z" fill="#F1F1F1"/>
<path d="M227.967 144.063C227.79 145.583 227.974 147.127 228.5 148.543C229.419 147.397 230.021 145.979 230.234 144.459C230.447 142.94 230.262 141.384 229.701 139.98C228.813 141.148 228.215 142.556 227.967 144.063Z" fill="#F1F1F1"/>
<path d="M222.199 149.806C223.508 150.265 224.903 150.332 226.243 150.001C225.392 148.792 224.246 147.883 222.943 147.384C221.64 146.885 220.235 146.817 218.899 147.189C219.774 148.369 220.912 149.271 222.199 149.806Z" fill="#F1F1F1"/>
<path d="M222.134 164.809C223.052 165.13 224.029 165.177 224.969 164.945C224.372 164.097 223.569 163.46 222.655 163.111C221.742 162.761 220.758 162.714 219.821 162.974C220.434 163.801 221.232 164.434 222.134 164.809Z" fill="#F1F1F1"/>
<path d="M81.2616 173.616L80.7493 173.604C80.9474 167.246 81.5551 160.913 82.5678 154.652C84.783 141.248 88.4666 132.445 93.5161 128.487L93.8103 128.955C82.0145 138.2 81.2676 173.262 81.2616 173.616Z" fill="#F1F1F1"/>
<path d="M87.6651 173.479L87.1528 173.468C87.1638 172.834 87.484 157.91 92.7477 153.785L93.0419 154.253C87.9906 158.211 87.6676 173.327 87.6651 173.479Z" fill="#F1F1F1"/>
<path d="M96.725 129.007C98.1396 129.007 99.2864 127.727 99.2864 126.148C99.2864 124.569 98.1396 123.289 96.725 123.289C95.3104 123.289 94.1636 124.569 94.1636 126.148C94.1636 127.727 95.3104 129.007 96.725 129.007Z" fill="#F1F1F1"/>
<path d="M95.4562 153.596C96.8708 153.596 98.0176 152.316 98.0176 150.737C98.0176 149.158 96.8708 147.878 95.4562 147.878C94.0416 147.878 92.8948 149.158 92.8948 150.737C92.8948 152.316 94.0416 153.596 95.4562 153.596Z" fill="#F1F1F1"/>
<path d="M86.4712 130.721C86.7279 132.927 86.4613 135.169 85.6979 137.223C84.3647 135.56 83.4907 133.501 83.1814 131.296C82.8721 129.091 83.1407 126.833 83.9547 124.794C85.244 126.49 86.1118 128.534 86.4712 130.721Z" fill="#F1F1F1"/>
<path d="M94.8441 139.057C92.9432 139.723 90.9189 139.821 88.9736 139.34C90.2088 137.584 91.8723 136.265 93.7637 135.541C95.6552 134.817 97.6939 134.719 99.6342 135.258C98.363 136.971 96.7112 138.281 94.8441 139.057Z" fill="#F1F1F1"/>
<path d="M94.9384 160.832C93.6061 161.299 92.1872 161.368 90.8237 161.031C91.6895 159.8 92.8554 158.876 94.1812 158.368C95.5069 157.86 96.9359 157.792 98.2959 158.17C97.4049 159.37 96.2472 160.288 94.9384 160.832Z" fill="#F1F1F1"/>
<path d="M41.6871 51.8572L40.4546 43.4408L36.9747 42.4696C36.9747 42.4696 34.2127 41.52 33.5672 47.7299C32.9216 53.9397 33.4221 65.5339 33.4221 65.5339L25.7817 92.5411C25.195 92.8523 24.7011 93.3456 24.3591 93.962C24.0171 94.5785 23.8415 95.2919 23.8533 96.0168C23.8652 96.7417 24.0639 97.4475 24.4258 98.0496C24.7877 98.6518 25.2973 99.1247 25.8938 99.4119C26.4902 99.699 27.1481 99.7882 27.7888 99.6688C28.4295 99.5494 29.0258 99.2264 29.5063 98.7385C29.9868 98.2506 30.3311 97.6184 30.4981 96.9177C30.665 96.2171 30.6476 95.4775 30.4477 94.7876L40.3821 69.4184L41.6871 51.8572Z" fill="#FFB7B7"/>
<path d="M62.8489 45.234L61.022 36.9533L63.8809 34.535C63.8809 34.535 66.087 32.4512 68.865 37.8794C71.643 43.3076 75.261 54.19 75.261 54.19L91.7877 75.6797C92.4368 75.7088 93.0645 75.9461 93.5959 76.3631C94.1273 76.7801 94.5397 77.3593 94.7838 78.0312C95.0279 78.7031 95.0934 79.4393 94.9724 80.1517C94.8514 80.864 94.549 81.5224 94.1015 82.0479C93.6539 82.5734 93.0802 82.9438 92.449 83.1148C91.8177 83.2857 91.1557 83.25 90.5422 83.0119C89.9287 82.7737 89.3896 82.3433 88.9896 81.772C88.5896 81.2008 88.3455 80.5129 88.2866 79.7909L70.2263 60.813L62.8489 45.234Z" fill="#FFB7B7"/>
<path d="M77.1307 169.206L81.275 169.205L83.2467 151.362L77.1299 151.362L77.1307 169.206Z" fill="#FFB7B7"/>
<path d="M76.0735 167.695L84.2352 167.695H84.2355C85.6149 167.695 86.9378 168.306 87.9132 169.395C88.8886 170.484 89.4367 171.961 89.4368 173.5V173.689L76.0737 173.69L76.0735 167.695Z" fill="#2F2E41"/>
<path d="M25.0724 169.206L29.2167 169.205L31.1884 151.362L25.0715 151.362L25.0724 169.206Z" fill="#FFB7B7"/>
<path d="M24.0151 167.695L32.1768 167.695H32.1771C33.5566 167.695 34.8795 168.306 35.8549 169.395C36.8303 170.484 37.3783 171.961 37.3784 173.5V173.689L24.0154 173.69L24.0151 167.695Z" fill="#2F2E41"/>
<path d="M50.49 29.3751C56.6805 29.3751 61.699 23.7734 61.699 16.8633C61.699 9.95318 56.6805 4.35144 50.49 4.35144C44.2994 4.35144 39.281 9.95318 39.281 16.8633C39.281 23.7734 44.2994 29.3751 50.49 29.3751Z" fill="#2F2E41"/>
<path d="M41.7408 10.1172C43.5521 8.09533 43.9192 5.227 42.5607 3.7106C41.2022 2.1942 38.6325 2.60396 36.8212 4.62583C35.0099 6.64769 34.6428 9.51603 36.0013 11.0324C37.3598 12.5488 39.9294 12.1391 41.7408 10.1172Z" fill="#2F2E41"/>
<path d="M62.1728 6.14388C62.9275 4.17175 61.6297 1.66248 59.274 0.539248C56.9183 -0.583979 54.3968 0.104188 53.6421 2.07631C52.8874 4.04843 54.1853 6.55771 56.541 7.68094C58.8967 8.80417 61.4181 8.116 62.1728 6.14388Z" fill="#2F2E41"/>
<path d="M59.1929 24.9435C61.7129 19.7976 60.0187 13.3457 55.4087 10.5327C50.7986 7.71973 45.0186 9.6109 42.4985 14.7568C39.9785 19.9026 41.6727 26.3545 46.2827 29.1675C50.8927 31.9805 56.6728 30.0893 59.1929 24.9435Z" fill="#FFB7B7"/>
<path d="M40.8496 13.171C43.0235 14.8434 45.6036 15.7335 48.2438 15.7217C47.302 16.4506 46.2299 16.943 45.1012 17.1649C48.6115 18.0054 52.2394 18.0281 55.7579 17.2317C56.54 17.0917 57.2947 16.8024 57.9888 16.3764C58.3347 16.1608 58.636 15.8664 58.8733 15.5122C59.1105 15.158 59.2783 14.7521 59.3658 14.3208C59.5996 12.8299 58.5588 11.4753 57.4772 10.5624C55.8212 9.18609 53.9118 8.23781 51.8872 7.78621C49.8626 7.33461 47.7734 7.39099 45.7707 7.95127C44.463 8.32858 43.153 8.96608 42.3036 10.1383C41.4543 11.3106 41.2026 13.1178 42.0119 14.3249L40.8496 13.171Z" fill="#2F2E41"/>
<path d="M46.0781 33.6586L36.6624 42.2419L44.8893 64.1379L45.0462 67.6412C45.0462 67.6412 36.5059 76.4307 31.2217 100.984C25.9375 125.537 15.2649 158.162 15.2649 158.162L36.6159 163.992L51.4609 108.451L70.3847 152.025L73.0767 164.913L89.5812 159.798L83.2115 125.212L67.5887 71.5252L68.8716 56.6936C68.8716 56.6936 71.7304 49.2907 66.764 41.4529L65.2062 34.0883L57.1423 32.554L46.0781 33.6586Z" fill="#2F2E41"/>
<path d="M204.408 111.582H139.038C138.516 111.581 138.015 111.349 137.646 110.937C137.277 110.525 137.069 109.967 137.069 109.384V84.7681C137.069 84.1855 137.277 83.6268 137.646 83.2148C138.015 82.8028 138.516 82.571 139.038 82.5703H204.408C204.93 82.571 205.43 82.8028 205.799 83.2148C206.168 83.6268 206.376 84.1855 206.377 84.7681V109.384C206.376 109.967 206.168 110.525 205.799 110.937C205.43 111.349 204.93 111.581 204.408 111.582Z" fill="#E5E5E5"/>
<path d="M164.635 89.1638H147.308V91.3616H164.635V89.1638Z" fill="white"/>
<path d="M187.474 91.8012C188.127 91.8012 188.656 91.2108 188.656 90.4825C188.656 89.7542 188.127 89.1638 187.474 89.1638C186.822 89.1638 186.293 89.7542 186.293 90.4825C186.293 91.2108 186.822 91.8012 187.474 91.8012Z" fill="#4DACE1"/>
<path d="M191.412 91.8012C192.065 91.8012 192.594 91.2108 192.594 90.4825C192.594 89.7542 192.065 89.1638 191.412 89.1638C190.76 89.1638 190.231 89.7542 190.231 90.4825C190.231 91.2108 190.76 91.8012 191.412 91.8012Z" fill="#4DACE1"/>
<path d="M195.35 91.8012C196.003 91.8012 196.532 91.2108 196.532 90.4825C196.532 89.7542 196.003 89.1638 195.35 89.1638C194.698 89.1638 194.169 89.7542 194.169 90.4825C194.169 91.2108 194.698 91.8012 195.35 91.8012Z" fill="#4DACE1"/>
<path d="M204.408 142.791H139.038C138.516 142.79 138.015 142.558 137.646 142.146C137.277 141.734 137.069 141.176 137.069 140.593V115.977C137.069 115.395 137.277 114.836 137.646 114.424C138.015 114.012 138.516 113.78 139.038 113.779H204.408C204.93 113.78 205.43 114.012 205.799 114.424C206.168 114.836 206.376 115.395 206.377 115.977V140.593C206.376 141.176 206.168 141.734 205.799 142.146C205.43 142.558 204.93 142.79 204.408 142.791Z" fill="#E5E5E5"/>
<path d="M164.635 120.373H147.308V122.571H164.635V120.373Z" fill="white"/>
<path d="M187.474 123.01C188.127 123.01 188.656 122.42 188.656 121.692C188.656 120.963 188.127 120.373 187.474 120.373C186.822 120.373 186.293 120.963 186.293 121.692C186.293 122.42 186.822 123.01 187.474 123.01Z" fill="#4DACE1"/>
<path d="M191.412 123.01C192.065 123.01 192.594 122.42 192.594 121.692C192.594 120.963 192.065 120.373 191.412 120.373C190.76 120.373 190.231 120.963 190.231 121.692C190.231 122.42 190.76 123.01 191.412 123.01Z" fill="#4DACE1"/>
<path d="M195.35 123.01C196.003 123.01 196.532 122.42 196.532 121.692C196.532 120.963 196.003 120.373 195.35 120.373C194.698 120.373 194.169 120.963 194.169 121.692C194.169 122.42 194.698 123.01 195.35 123.01Z" fill="#4DACE1"/>
<path d="M204.408 174H139.038C138.516 173.999 138.015 173.768 137.646 173.356C137.277 172.944 137.069 172.385 137.069 171.802V147.186C137.069 146.604 137.277 146.045 137.646 145.633C138.015 145.221 138.516 144.989 139.038 144.989H204.408C204.93 144.989 205.43 145.221 205.799 145.633C206.168 146.045 206.376 146.604 206.377 147.186V171.802C206.376 172.385 206.168 172.944 205.799 173.356C205.43 173.768 204.93 173.999 204.408 174Z" fill="#E5E5E5"/>
<path d="M164.635 151.582H147.308V153.78H164.635V151.582Z" fill="white"/>
<path d="M187.474 154.22C188.127 154.22 188.656 153.629 188.656 152.901C188.656 152.173 188.127 151.582 187.474 151.582C186.822 151.582 186.293 152.173 186.293 152.901C186.293 153.629 186.822 154.22 187.474 154.22Z" fill="#4DACE1"/>
<path d="M191.412 154.22C192.065 154.22 192.594 153.629 192.594 152.901C192.594 152.173 192.065 151.582 191.412 151.582C190.76 151.582 190.231 152.173 190.231 152.901C190.231 153.629 190.76 154.22 191.412 154.22Z" fill="#4DACE1"/>
<path d="M195.35 154.22C196.003 154.22 196.532 153.629 196.532 152.901C196.532 152.173 196.003 151.582 195.35 151.582C194.698 151.582 194.169 152.173 194.169 152.901C194.169 153.629 194.698 154.22 195.35 154.22Z" fill="#4DACE1"/>
<path d="M125.964 120.924C124.719 120.919 123.479 120.74 122.274 120.391L122.037 120.317L121.816 120.194C113.85 115.736 107.13 109.847 101.841 102.691C97.4633 96.7328 94.0502 89.9678 91.7553 82.7002C89.0109 73.9992 87.6905 64.8181 87.8573 55.5954C87.8607 55.4019 87.8635 55.2524 87.8635 55.1494C87.8635 50.6662 90.0929 46.7325 93.5432 45.1278C96.1838 43.8996 120.16 32.9071 121.892 32.1129C125.154 30.2882 128.635 31.8112 129.192 32.0775C130.441 32.6477 152.605 42.7668 157.395 45.3126C162.331 47.9364 163.648 52.6499 163.648 55.0214C163.648 65.7578 161.982 75.7918 158.697 84.8447C156.044 92.1724 152.283 98.9373 147.579 104.845C138.504 116.245 129.425 120.287 129.338 120.322C128.253 120.739 127.111 120.942 125.964 120.924ZM123.829 115.021C124.616 115.218 126.428 115.513 127.609 115.032C129.11 114.421 136.708 110.023 143.808 101.104C153.619 88.7812 158.596 73.29 158.604 55.061C158.586 54.6917 158.351 52.0577 155.226 50.3967C150.529 47.9002 127.491 37.3851 127.259 37.2791L127.196 37.249C126.713 37.0232 125.176 36.5475 124.117 37.167L123.905 37.2774C123.648 37.3951 98.1978 49.0632 95.4834 50.3256C93.5847 51.2087 92.9082 53.3965 92.9082 55.1494C92.9082 55.2775 92.9052 55.4639 92.901 55.7047C92.6841 68.1776 95.2698 98.8697 123.829 115.021Z" fill="#3F3D56"/>
<path d="M122.947 34.673C122.947 34.673 97.2651 46.4469 94.5134 47.7267C91.7618 49.0065 90.386 52.078 90.386 55.1494C90.386 58.2209 88.3222 98.2994 122.947 117.677C122.947 117.677 126.09 118.648 128.474 117.677C130.858 116.707 161.126 100.326 161.126 55.0214C161.126 55.0214 161.126 50.4142 156.311 47.8547C151.495 45.2951 128.214 34.673 128.214 34.673C128.214 34.673 125.355 33.2652 122.947 34.673Z" fill="#4DACE1"/>
<path opacity="0.2" d="M125.698 43.8873V106.697C125.698 106.697 151.61 92.7749 151.38 56.1732L125.698 43.8873Z" fill="black"/>
<path d="M237.712 174H0.288136C0.211717 174 0.138429 173.966 0.0843927 173.906C0.0303568 173.845 0 173.764 0 173.678C0 173.593 0.0303568 173.511 0.0843927 173.451C0.138429 173.391 0.211717 173.357 0.288136 173.357H237.712C237.788 173.357 237.862 173.391 237.916 173.451C237.97 173.511 238 173.593 238 173.678C238 173.764 237.97 173.845 237.916 173.906C237.862 173.966 237.788 174 237.712 174Z" fill="#CBCBCB"/>
</g>
<defs>
<clipPath id="clip0">
<rect width="238" height="174" fill="white"/>
</clipPath>
</defs>
</svg>
