<svg width="238" height="174" viewBox="0 0 238 174" fill="none" xmlns="http://www.w3.org/2000/svg">
<g clip-path="url(#clip0)">
<path opacity="0.1" d="M77.631 110.401C85.5025 107.314 97.8589 106.684 109.106 106.932C144.434 107.703 176.324 115.206 203.907 123.695C213.894 126.769 223.725 130.081 230.207 134.313C243.403 142.927 239.488 154.86 221.141 161.957C214.897 164.372 207.33 166.229 199.56 167.861C185.742 170.78 170.843 173.121 155.163 173.795C143.983 174.27 132.664 173.883 121.55 173.22C90.4947 171.36 60.0141 167.275 34.4648 160.252C23.2584 157.178 12.6968 153.356 8.0835 148.38C3.47015 143.404 6.41945 137.103 17.8626 134.157C22.5977 132.941 28.2528 132.39 33.7929 131.875C41.9463 131.115 50.2305 130.364 57.5879 128.819C65.1889 127.223 74.1879 124.135 72.6839 120.603C71.0627 116.812 69.7684 113.484 77.631 110.401Z" fill="#6C63FF"/>
<path opacity="0.1" d="M113.503 6.77499L112.644 56.4687C112.644 56.4687 143.742 56.4687 170.2 65.0358L170.716 14.8204C170.716 14.8204 128.279 4.71979 113.503 6.77499Z" fill="black"/>
<path d="M113.052 6.10037L112.193 55.7941C112.193 55.7941 143.291 55.7941 169.749 64.3612L170.265 14.1458C170.265 14.1458 127.828 4.04517 113.052 6.10037Z" fill="#F5F5FB"/>
<path opacity="0.1" d="M100.258 6.73677L101.117 56.4305C101.117 56.4305 70.0188 56.4305 43.5608 64.9976L43.0444 14.7957C43.0444 14.7957 85.4823 4.68156 100.258 6.73677Z" fill="black"/>
<path d="M100.709 6.06221L101.568 55.7559C101.568 55.7559 70.4697 55.7559 44.0117 64.323L43.4954 14.1211C43.4954 14.1211 85.9332 4.007 100.709 6.06221Z" fill="#F5F5FB"/>
<path opacity="0.1" d="M178.223 21.9057V71.08C178.223 71.08 188.369 69.8815 209.664 96.0955L211.556 46.9212C211.556 46.9212 189.391 23.1064 178.223 21.9057Z" fill="black"/>
<path d="M177.772 21.456V70.6303C177.772 70.6303 187.918 69.4318 209.213 95.6458L211.105 46.4715C211.105 46.4715 188.94 22.6567 177.772 21.456Z" fill="#F5F5FB"/>
<path opacity="0.1" d="M36.0905 23.3651V72.5416C36.0905 72.5416 25.9439 71.3431 4.64942 97.5571L2.75989 48.3828C2.75989 48.3828 24.9224 24.568 36.0905 23.3651Z" fill="black"/>
<path d="M36.5415 22.6904V71.867C36.5415 71.867 26.3948 70.6685 5.10035 96.8825L3.21082 47.7082C3.21082 47.7082 25.3734 23.8934 36.5415 22.6904Z" fill="#F5F5FB"/>
<path d="M150.635 105.612C150.635 107.287 139.967 116.967 115.685 116.967C91.4033 116.967 78.2555 107.624 78.2555 105.949C78.2555 104.274 91.8543 108.422 116.136 108.422C140.418 108.422 150.635 103.934 150.635 105.612Z" fill="#F7F7FD"/>
<path opacity="0.1" d="M71.2769 82.5388C72.704 82.5388 73.8609 82.3808 73.8609 82.1858C73.8609 81.9908 72.704 81.8328 71.2769 81.8328C69.8498 81.8328 68.6929 81.9908 68.6929 82.1858C68.6929 82.3808 69.8498 82.5388 71.2769 82.5388Z" fill="#6C63FF"/>
<path opacity="0.1" d="M61.3805 83.5394C62.8076 83.5394 63.9645 83.3814 63.9645 83.1864C63.9645 82.9914 62.8076 82.8334 61.3805 82.8334C59.9534 82.8334 58.7965 82.9914 58.7965 83.1864C58.7965 83.3814 59.9534 83.5394 61.3805 83.5394Z" fill="#6C63FF"/>
<path opacity="0.1" d="M49.7277 82.1858C51.1548 82.1858 52.3117 82.0277 52.3117 81.8328C52.3117 81.6378 51.1548 81.4797 49.7277 81.4797C48.3006 81.4797 47.1437 81.6378 47.1437 81.8328C47.1437 82.0277 48.3006 82.1858 49.7277 82.1858Z" fill="#6C63FF"/>
<path opacity="0.1" d="M65.3423 86.2872C66.3559 86.2872 67.1777 86.1744 67.1777 86.0354C67.1777 85.8963 66.3559 85.7835 65.3423 85.7835C64.3286 85.7835 63.5068 85.8963 63.5068 86.0354C63.5068 86.1744 64.3286 86.2872 65.3423 86.2872Z" fill="#6C63FF"/>
<path opacity="0.1" d="M55.0716 86.0354C56.0853 86.0354 56.907 85.9226 56.907 85.7835C56.907 85.6444 56.0853 85.5317 55.0716 85.5317C54.058 85.5317 53.2362 85.6444 53.2362 85.7835C53.2362 85.9226 54.058 86.0354 55.0716 86.0354Z" fill="#6C63FF"/>
<path d="M61.3264 83.1077C61.3264 83.1077 64.9476 71.2644 60.7582 66.5221C57.624 62.9739 54.0614 63.3899 52.483 63.8396C52.0708 63.949 51.6873 64.1464 51.3591 64.4182C51.0309 64.6899 50.7658 65.0296 50.5822 65.4136C50.0253 66.6121 50.1313 68.5616 54.0591 70.8282C60.6409 74.6283 61.0491 79.8428 61.0491 79.8428L61.3264 83.1077Z" fill="#4DACE1"/>
<path d="M53.0422 65.517C53.0422 65.517 63.721 68.8472 61.3264 83.1077" stroke="#565987" stroke-miterlimit="10"/>
<path d="M59.279 66.711C59.279 66.711 57.8089 67.6981 58.2756 69.1844" stroke="#565987" stroke-miterlimit="10"/>
<path d="M54.1133 67.5902C54.1133 67.5902 55.0152 66.6773 56.1043 67.1809" stroke="#565987" stroke-miterlimit="10"/>
<path d="M58.3455 72.1751C58.3455 72.1751 59.9238 71.3769 60.3319 72.3775" stroke="#565987" stroke-miterlimit="10"/>
<path d="M62.2395 73.8413C62.2395 73.8413 61.0535 73.7468 61.0332 74.3112" stroke="#565987" stroke-miterlimit="10"/>
<path d="M61.4729 83.2022C61.4729 83.2022 57.2294 74.5946 56.0614 74.7835C55.5089 74.8734 55.2541 75.4153 55.1369 75.9617C54.9919 76.6667 55.0707 77.3992 55.3624 78.0574C55.9734 79.4335 57.5901 82.0531 61.4729 83.2022Z" fill="#4DACE1"/>
<path d="M56.0907 76.4159C56.0907 76.4159 60.544 82.8558 61.4053 83.1392" stroke="#565987" stroke-miterlimit="10"/>
<path d="M55.6871 77.421H56.7266" stroke="#565987" stroke-miterlimit="10"/>
<path d="M56.9318 79.7775L58.5597 79.8472" stroke="#565987" stroke-miterlimit="10"/>
<path d="M57.924 77.8932L57.7458 78.7387" stroke="#565987" stroke-miterlimit="10"/>
<path d="M59.6556 80.4678L59.624 81.2369" stroke="#565987" stroke-miterlimit="10"/>
<path d="M61.3467 83.2022C61.3467 83.2022 65.588 74.5946 66.7582 74.7835C67.3129 74.8734 67.5677 75.4153 67.6827 75.9617C67.8267 76.6667 67.7479 77.3989 67.4572 78.0574C66.8462 79.4335 65.2295 82.0531 61.3467 83.2022Z" fill="#4DACE1"/>
<path d="M66.7223 76.4159C66.7223 76.4159 62.269 82.8558 61.4099 83.1392" stroke="#565987" stroke-miterlimit="10"/>
<path d="M67.1325 77.421H66.093" stroke="#565987" stroke-miterlimit="10"/>
<path d="M65.8879 79.7775L64.2577 79.8472" stroke="#565987" stroke-miterlimit="10"/>
<path d="M64.8958 77.8932L65.0739 78.7387" stroke="#565987" stroke-miterlimit="10"/>
<path d="M63.1641 80.4678L63.1956 81.2369" stroke="#565987" stroke-miterlimit="10"/>
<path d="M54.0614 85.2124C53.9457 85.1182 53.8616 84.9911 53.8201 84.8481C53.8011 84.7766 53.8076 84.7008 53.8385 84.6335C53.8693 84.5662 53.9226 84.5118 53.9892 84.4793C54.1426 84.4186 54.3094 84.5265 54.4402 84.6345C54.4938 84.6975 54.56 84.7486 54.6345 84.7846C54.7091 84.8206 54.7904 84.8407 54.8731 84.8436C54.7887 84.7672 54.7254 84.6703 54.6895 84.5624C54.6535 84.4545 54.6461 84.3391 54.6679 84.2275C54.6767 84.1813 54.6969 84.138 54.7266 84.1016C54.8123 84.0094 54.9678 84.0498 55.0716 84.1218C55.3985 84.3467 55.4887 84.7964 55.491 85.1944C55.5086 85.045 55.5086 84.894 55.491 84.7447C55.4842 84.6708 55.496 84.5964 55.5251 84.5281C55.5542 84.4599 55.5998 84.3998 55.6578 84.3534C55.7353 84.3118 55.8223 84.2908 55.9104 84.2927C55.9835 84.2823 56.058 84.2873 56.1291 84.3075C56.2002 84.3276 56.2662 84.3624 56.323 84.4096C56.3769 84.4838 56.4046 84.5737 56.4017 84.6653C56.3989 84.7568 56.3656 84.8449 56.3072 84.9155C56.1855 85.052 56.0414 85.1669 55.881 85.2551C55.7584 85.3269 55.6542 85.4262 55.5766 85.5451C55.5668 85.5613 55.5593 85.5787 55.5541 85.5969H54.6296C54.4245 85.4935 54.2335 85.3643 54.0614 85.2124Z" fill="#4DACE1"/>
<path d="M70.2284 81.7451C70.1129 81.6517 70.0287 81.5254 69.9871 81.383C69.968 81.3112 69.9744 81.235 70.0052 81.1674C70.036 81.0998 70.0894 81.0449 70.1562 81.012C70.2387 80.996 70.3238 81.0022 70.4031 81.0299C70.4823 81.0575 70.5528 81.1057 70.6072 81.1694C70.6606 81.2325 70.7267 81.2836 70.8014 81.3193C70.876 81.3549 70.9574 81.3744 71.0401 81.3763C70.9555 81.3 70.8921 81.2032 70.8562 81.0952C70.8202 80.9872 70.8129 80.8718 70.8349 80.7602C70.8427 80.7144 70.863 80.6716 70.8936 80.6365C70.9793 80.5443 71.1348 80.5826 71.2386 80.6545C71.5655 80.8794 71.6557 81.3291 71.658 81.7293C71.6754 81.5799 71.6754 81.429 71.658 81.2796C71.6512 81.2057 71.663 81.1313 71.6921 81.0631C71.7212 80.9948 71.7668 80.9348 71.8248 80.8884C71.9021 80.8464 71.9894 80.8262 72.0773 80.8299C72.1505 80.8189 72.2252 80.8237 72.2964 80.8438C72.3675 80.864 72.4335 80.8991 72.49 80.9468C72.5441 81.0205 72.5719 81.1101 72.569 81.2014C72.5662 81.2926 72.5328 81.3803 72.4742 81.4505C72.3525 81.587 72.2084 81.7018 72.048 81.79C71.9259 81.8625 71.8218 81.9617 71.7436 82.0801C71.7338 82.0963 71.7263 82.1137 71.7211 82.1318H70.7966C70.5909 82.0285 70.3998 81.8985 70.2284 81.7451Z" fill="#4DACE1"/>
<path d="M64.8394 85.2124C64.7238 85.1182 64.6396 84.9911 64.5982 84.8481C64.5796 84.7766 64.5863 84.7009 64.6171 84.6338C64.6479 84.5666 64.7009 84.5121 64.7673 84.4793C64.9229 84.4186 65.0875 84.5265 65.2183 84.6345C65.2719 84.6973 65.3382 84.7484 65.4127 84.7844C65.4872 84.8204 65.5684 84.8406 65.6512 84.8436C65.5669 84.7671 65.504 84.6701 65.4684 84.5622C65.4329 84.4542 65.4259 84.3389 65.4482 84.2275C65.4551 84.1812 65.4746 84.1376 65.5046 84.1016C65.5903 84.0094 65.7459 84.0498 65.8496 84.1218C66.1765 84.3467 66.269 84.7964 66.2712 85.1944C66.2877 85.0449 66.2877 84.8941 66.2712 84.7447C66.2645 84.6708 66.2763 84.5964 66.3054 84.5281C66.3345 84.4599 66.3801 84.3998 66.4381 84.3534C66.5444 84.3046 66.6615 84.2841 66.7781 84.294C66.8947 84.3038 67.0067 84.3437 67.1033 84.4096C67.1579 84.4835 67.1861 84.5735 67.1832 84.6653C67.1804 84.7571 67.1466 84.8452 67.0875 84.9155C66.9663 85.0525 66.8221 85.1674 66.6613 85.2551C66.5396 85.3281 66.4356 85.4272 66.3569 85.5451C66.3481 85.5618 66.3405 85.5791 66.3344 85.5969H65.4122C65.2052 85.4942 65.0126 85.365 64.8394 85.2124Z" fill="#4DACE1"/>
<path d="M49.5518 78.2058C49.5518 78.2058 49.2068 78.6555 49.7119 79.3301C50.217 80.0047 50.6364 80.5871 50.4673 81.012C50.4673 81.012 49.7029 79.7461 49.0828 79.7281C48.4627 79.7101 48.8754 78.9658 49.5518 78.2058Z" fill="#4DACE1"/>
<path opacity="0.1" d="M49.5517 78.2058C49.5215 78.2493 49.4979 78.297 49.4819 78.3475C48.8753 79.0558 48.5529 79.7191 49.1346 79.7348C49.678 79.7506 50.3297 80.7197 50.4875 80.9626C50.4828 80.9817 50.4768 81.0005 50.4695 81.0188C50.4695 81.0188 49.7051 79.7528 49.085 79.7348C48.4649 79.7169 48.8753 78.9658 49.5517 78.2058Z" fill="black"/>
<path d="M48.9159 78.7792C48.9159 78.9388 48.9339 79.067 48.9565 79.067C48.979 79.067 48.9948 78.9388 48.9948 78.7792C48.9948 78.6195 48.9745 78.696 48.952 78.696C48.9294 78.696 48.9159 78.6218 48.9159 78.7792Z" fill="#FFD037"/>
<path d="M48.695 78.9703C48.8348 79.0468 48.9565 79.0918 48.9678 79.0715C48.9791 79.0513 48.8731 78.9748 48.7423 78.9006C48.6116 78.8264 48.6567 78.8781 48.6476 78.9006C48.6386 78.9231 48.5552 78.9051 48.695 78.9703Z" fill="#FFD037"/>
<path d="M51.3871 78.2058C51.3871 78.2058 51.7344 78.6555 51.227 79.3301C50.7197 80.0047 50.3048 80.5871 50.4739 81.012C50.4739 81.012 51.2361 79.7461 51.8584 79.7281C52.4807 79.7101 52.0703 78.9658 51.3871 78.2058Z" fill="#4DACE1"/>
<path opacity="0.1" d="M51.3872 78.2058C51.4174 78.2493 51.441 78.297 51.4571 78.3475C52.0636 79.0558 52.386 79.7191 51.8043 79.7348C51.2609 79.7506 50.6115 80.7197 50.4514 80.9626C50.4561 80.9817 50.4621 81.0005 50.4695 81.0188C50.4695 81.0188 51.2316 79.7528 51.8539 79.7348C52.4762 79.7169 52.0704 78.9658 51.3872 78.2058Z" fill="black"/>
<path d="M52.032 78.7792C52.032 78.9388 52.0163 79.067 51.9937 79.067C51.9712 79.067 51.9531 78.9388 51.9531 78.7792C51.9531 78.6195 51.9757 78.696 51.9982 78.696C52.0208 78.696 52.032 78.6218 52.032 78.7792Z" fill="#FFD037"/>
<path d="M52.2576 78.9703C52.1178 79.0468 51.996 79.0918 51.987 79.0715C51.978 79.0513 52.0795 78.9748 52.2125 78.9006C52.3455 78.8264 52.2982 78.8781 52.3095 78.9006C52.3207 78.9231 52.3906 78.9051 52.2576 78.9703Z" fill="#FFD037"/>
<path d="M51.9216 80.9603C51.9216 80.9603 50.952 80.931 50.6612 80.7242C50.3703 80.5173 49.173 80.2745 49.1008 80.6005C49.0287 80.9266 47.6465 82.2532 48.7378 82.2622C49.8292 82.2712 51.2767 82.0913 51.5676 81.9159C51.8585 81.7405 51.9216 80.9603 51.9216 80.9603Z" fill="#A8A8A8"/>
<path opacity="0.2" d="M48.7197 82.1453C49.811 82.1453 51.2586 81.9767 51.5495 81.799C51.775 81.6641 51.8584 81.1807 51.8877 80.9581H51.9215C51.9215 80.9581 51.8584 81.7361 51.5675 81.9137C51.2767 82.0914 49.8313 82.269 48.7377 82.26C48.4243 82.26 48.3138 82.1453 48.3206 81.9789C48.3634 82.0824 48.4852 82.1431 48.7197 82.1453Z" fill="black"/>
<path opacity="0.1" d="M44.0072 112.771C48.3309 112.771 51.8359 112.255 51.8359 111.618C51.8359 110.98 48.3309 110.464 44.0072 110.464C39.6835 110.464 36.1785 110.98 36.1785 111.618C36.1785 112.255 39.6835 112.771 44.0072 112.771Z" fill="#6C63FF"/>
<path opacity="0.1" d="M65.8744 122.323C70.198 122.323 73.7031 121.807 73.7031 121.169C73.7031 120.532 70.198 120.016 65.8744 120.016C61.5507 120.016 58.0457 120.532 58.0457 121.169C58.0457 121.807 61.5507 122.323 65.8744 122.323Z" fill="#6C63FF"/>
<path opacity="0.1" d="M33.7073 133.19C38.0309 133.19 41.536 132.674 41.536 132.037C41.536 131.4 38.0309 130.883 33.7073 130.883C29.3836 130.883 25.8785 131.4 25.8785 132.037C25.8785 132.674 29.3836 133.19 33.7073 133.19Z" fill="#6C63FF"/>
<path opacity="0.1" d="M199.582 157.061C203.906 157.061 207.411 156.545 207.411 155.908C207.411 155.271 203.906 154.754 199.582 154.754C195.259 154.754 191.754 155.271 191.754 155.908C191.754 156.545 195.259 157.061 199.582 157.061Z" fill="#6C63FF"/>
<path opacity="0.1" d="M110.732 129.943C113.594 129.943 115.915 129.685 115.915 129.366C115.915 129.046 113.594 128.788 110.732 128.788C107.869 128.788 105.548 129.046 105.548 129.366C105.548 129.685 107.869 129.943 110.732 129.943Z" fill="#6C63FF"/>
<path opacity="0.1" d="M184.915 100.262C187.778 100.262 190.099 100.003 190.099 99.6842C190.099 99.3651 187.778 99.1063 184.915 99.1063C182.052 99.1063 179.731 99.3651 179.731 99.6842C179.731 100.003 182.052 100.262 184.915 100.262Z" fill="#6C63FF"/>
<path opacity="0.1" d="M144.551 144.11C147.414 144.11 149.735 143.851 149.735 143.532C149.735 143.213 147.414 142.954 144.551 142.954C141.689 142.954 139.368 143.213 139.368 143.532C139.368 143.851 141.689 144.11 144.551 144.11Z" fill="#6C63FF"/>
<path opacity="0.1" d="M99.8071 140.296C102.67 140.296 104.991 140.037 104.991 139.718C104.991 139.399 102.67 139.14 99.8071 139.14C96.9442 139.14 94.6233 139.399 94.6233 139.718C94.6233 140.037 96.9442 140.296 99.8071 140.296Z" fill="#6C63FF"/>
<path opacity="0.1" d="M57.8742 138.796C60.7372 138.796 63.0581 138.537 63.0581 138.218C63.0581 137.899 60.7372 137.64 57.8742 137.64C55.0113 137.64 52.6904 137.899 52.6904 138.218C52.6904 138.537 55.0113 138.796 57.8742 138.796Z" fill="#6C63FF"/>
<path opacity="0.1" d="M46.9475 149.149C49.8104 149.149 52.1313 148.89 52.1313 148.571C52.1313 148.252 49.8104 147.993 46.9475 147.993C44.0845 147.993 41.7637 148.252 41.7637 148.571C41.7637 148.89 44.0845 149.149 46.9475 149.149Z" fill="#6C63FF"/>
<g opacity="0.1">
<path opacity="0.1" d="M114.725 69.1192C133.668 69.1192 149.025 62.2846 149.025 53.8536C149.025 45.4226 133.668 38.588 114.725 38.588C95.7814 38.588 80.4247 45.4226 80.4247 53.8536C80.4247 62.2846 95.7814 69.1192 114.725 69.1192Z" fill="black"/>
<path opacity="0.1" d="M149.62 59.3109C148.103 67.2709 133.108 73.5197 114.831 73.5197C96.3932 73.5197 81.295 67.1607 80.0007 59.1041H79.8722V72.0761C85.9016 78.3587 99.25 82.7277 114.745 82.7277C130.24 82.7277 143.589 78.3587 149.62 72.0761V59.3109Z" fill="black"/>
<path opacity="0.1" d="M149.62 75.096C148.103 83.0537 133.108 89.3048 114.831 89.3048C96.3932 89.3048 81.295 82.9458 80.0007 74.8868H79.8722V87.8612C85.9016 94.1437 99.25 98.5105 114.745 98.5105C130.24 98.5105 143.589 94.1437 149.62 87.8612V75.096Z" fill="black"/>
<path opacity="0.1" d="M149.62 92.4573C148.103 100.417 133.108 106.666 114.831 106.666C96.3932 106.666 81.295 100.309 80.0007 92.2504H79.8722V106.241C79.8716 106.539 79.9331 106.834 80.0526 107.107C80.1721 107.381 80.3472 107.626 80.5667 107.829C86.8801 113.61 99.8205 115.874 114.745 115.874C129.67 115.874 142.603 113.61 148.926 107.829C149.145 107.626 149.32 107.381 149.44 107.107C149.559 106.834 149.621 106.539 149.62 106.241V92.4573Z" fill="black"/>
</g>
<path d="M114.725 68.2198C133.668 68.2198 149.025 61.3852 149.025 52.9542C149.025 44.5232 133.668 37.6885 114.725 37.6885C95.7814 37.6885 80.4247 44.5232 80.4247 52.9542C80.4247 61.3852 95.7814 68.2198 114.725 68.2198Z" fill="#4DACE1"/>
<path d="M149.62 58.4115C148.103 66.3715 133.108 72.6203 114.831 72.6203C96.3932 72.6203 81.295 66.2613 80.0007 58.2047H79.8722V71.1767C85.9016 77.4593 99.25 81.8283 114.745 81.8283C130.24 81.8283 143.589 77.4593 149.62 71.1767V58.4115Z" fill="#4DACE1"/>
<path d="M149.62 74.1965C148.103 82.1543 133.108 88.4053 114.831 88.4053C96.3932 88.4053 81.295 82.0464 80.0007 73.9874H79.8722V86.9618C85.9016 93.2443 99.25 97.611 114.745 97.611C130.24 97.611 143.589 93.2443 149.62 86.9618V74.1965Z" fill="#4DACE1"/>
<path d="M149.62 91.5579C148.103 99.5179 133.108 105.767 114.831 105.767C96.3932 105.767 81.295 99.4099 80.0007 91.351H79.8722V105.342C79.8716 105.64 79.9331 105.935 80.0526 106.208C80.1721 106.481 80.3472 106.727 80.5667 106.929C86.8801 112.71 99.8205 114.975 114.745 114.975C129.67 114.975 142.603 112.71 148.926 106.929C149.145 106.727 149.32 106.481 149.44 106.208C149.559 105.935 149.621 105.64 149.62 105.342V91.5579Z" fill="#4DACE1"/>
<path opacity="0.1" d="M165.285 130.757C172.383 130.757 178.137 129.725 178.137 128.45C178.137 127.176 172.383 126.143 165.285 126.143C158.186 126.143 152.432 127.176 152.432 128.45C152.432 129.725 158.186 130.757 165.285 130.757Z" fill="#6C63FF"/>
<path d="M158.069 99.0547C158.718 99.4369 159.738 99.6865 161.021 98.8635L161.009 100.687C161.1 101.937 162.651 106.495 162.651 106.495L163.744 110.244C164.529 112.893 164.934 115.639 164.946 118.401C164.946 119.314 165.032 120.259 165.296 120.969C165.88 122.543 165.07 124.567 164.716 125.314C164.124 125.513 163.522 125.682 162.912 125.82C162.858 125.833 162.805 125.849 162.752 125.869V125.858C162.752 125.858 161.111 126.508 160.38 126.418C159.837 126.352 159.496 127.029 159.929 127.526C159.576 127.634 159.207 127.682 158.838 127.67C158.107 127.58 157.742 128.83 159.111 129.188C160.48 129.545 168.234 129.188 168.234 129.188C168.452 129.079 168.627 128.901 168.732 128.682C168.838 128.463 168.867 128.216 168.816 127.978L169.785 127.938C169.785 127.938 171.154 127.313 169.785 125.615L169.711 125.669L169.42 124.81V123.652C169.42 123.652 171.154 115.332 170.606 114.359C170.058 113.385 169.767 108.362 169.767 108.362L169.959 102.92C170.453 101.904 170.705 100.307 170.834 99.0592C171.02 98.4645 171.138 97.8503 171.183 97.2288C171.206 96.9342 171.224 96.6284 171.235 96.3091C171.243 95.6086 171.13 94.9119 170.901 94.2494C171.52 93.3339 172.212 92.4691 172.969 91.6636C173.284 91.3714 173.523 91.0075 173.667 90.603C173.81 90.1985 173.853 89.7654 173.792 89.3408L173.341 86.3029L172.245 81.1312C172.383 79.6943 172.083 78.8669 171.749 78.3992C171.828 77.9337 171.902 77.4705 171.959 77.0028C172.2 74.9757 172.092 72.9223 171.639 70.9316C171.481 70.239 171.264 69.5262 170.775 69.0001C170.223 68.4019 169.325 68.0399 169.118 67.2597C169.088 67.0608 169.046 66.864 168.991 66.6705C168.791 66.1601 168.159 65.9735 167.605 65.906C166.617 65.7868 165.19 65.6969 164.241 66.0837C163.407 66.451 162.722 67.0858 162.292 67.887C162.079 68.2162 161.998 68.614 162.067 69.0001C162.101 69.1341 162.153 69.2628 162.222 69.3823C161.906 70.2367 161.941 71.1808 162.318 72.01C162.696 72.8392 163.385 73.4867 164.238 73.812C164.261 73.8817 164.281 73.9492 164.297 74.0144C164.339 74.1747 164.369 74.3378 164.387 74.5024C164.369 74.8172 164.349 75.1342 164.335 75.4513L164.301 75.5794C163.516 75.926 162.751 76.3148 162.008 76.7442C162.554 77.5492 161.916 80.9446 161.916 80.9446C160.547 81.7473 159.181 83.8025 160.64 85.9477C162.098 88.0928 161.278 90.4133 161.278 90.4133L161.052 93.9076L161.007 94.607H161.023L161.007 94.8723H161.045V95.1579C160.405 95.394 159.467 95.8662 158.91 96.7431C158.646 97.1731 158.325 97.5656 157.956 97.9101C157.87 97.9835 157.803 98.0765 157.761 98.1813C157.719 98.286 157.703 98.3993 157.714 98.5117C157.725 98.624 157.763 98.732 157.825 98.8266C157.887 98.9211 157.97 98.9993 158.069 99.0547ZM169.084 89.7725C169.029 89.1678 169.141 88.5596 169.409 88.0141H170.053C170.072 88.1563 170.099 88.2974 170.132 88.4368C170.317 89.2351 169.578 89.6106 169.084 89.7725Z" fill="url(#paint0_linear)"/>
<path d="M169.264 124.401L169.616 125.451L168.475 126.589L164.701 127.474L161.979 127.211L162.155 126.249C162.207 126.042 162.315 125.853 162.467 125.703C162.619 125.553 162.81 125.448 163.018 125.399C164.146 125.138 166.27 124.54 166.719 123.71L169.264 124.401Z" fill="#DB8B8B"/>
<path opacity="0.1" d="M169.264 124.401L169.616 125.451L168.475 126.589L164.701 127.474L161.979 127.211L162.155 126.249C162.207 126.042 162.315 125.853 162.467 125.703C162.619 125.553 162.81 125.448 163.018 125.399C164.146 125.138 166.27 124.54 166.719 123.71L169.264 124.401Z" fill="black"/>
<path d="M162.856 126.939L163.384 126.24L162.856 125.428C162.856 125.428 161.278 126.065 160.574 125.977C159.871 125.889 159.521 127.115 160.838 127.466C162.155 127.816 169.616 127.466 169.616 127.466C169.616 127.466 170.933 126.852 169.616 125.188L168.475 126.065C168.475 126.065 166.543 127.115 165.578 126.939H162.856Z" fill="#C17174"/>
<path d="M160.489 128.428L163.21 128.691L166.985 127.814L168.126 126.676L168.033 126.4L167.902 126.008L167.774 125.626L165.224 124.927C165.094 125.136 164.917 125.313 164.707 125.442C163.88 126.006 162.396 126.413 161.523 126.616C161.487 126.624 161.451 126.636 161.415 126.649C161.245 126.703 161.091 126.796 160.964 126.921C160.812 127.07 160.704 127.259 160.653 127.466L160.489 128.428Z" fill="#DB8B8B"/>
<path opacity="0.1" d="M160.489 128.428L163.21 128.691L166.985 127.814L168.126 126.676L168.033 126.4L166.985 127.202C166.985 127.202 165.052 128.253 164.087 128.077H161.363L161.891 127.378L161.418 126.649C161.248 126.703 161.093 126.796 160.967 126.921C160.814 127.07 160.706 127.259 160.655 127.466L160.489 128.428Z" fill="black"/>
<path d="M161.363 128.165L161.891 127.466L161.363 126.654C161.363 126.654 159.785 127.29 159.082 127.202C158.378 127.115 158.029 128.34 159.345 128.691C160.662 129.042 168.123 128.691 168.123 128.691C168.123 128.691 169.44 128.077 168.123 126.415L166.982 127.29C166.982 127.29 165.05 128.34 164.085 128.165H161.363Z" fill="#C17174"/>
<path d="M163.557 77.3918C163.557 77.3918 167.772 77.8415 167.165 76.0786C166.992 75.5821 166.947 75.0501 167.034 74.5316C167.143 73.8898 167.397 73.2814 167.778 72.753L163.828 73.3646C164.065 73.7594 164.246 74.1856 164.365 74.6306C164.827 76.4879 163.557 77.3918 163.557 77.3918Z" fill="#DB8B8B"/>
<path d="M170.757 97.3435C170.757 97.3435 170.669 101.108 169.792 102.947L169.616 108.287C169.616 108.287 169.878 113.189 170.405 114.152C170.933 115.114 169.264 123.256 169.264 123.256V124.657C169.264 124.657 166.455 125.707 165.657 124.482L166.446 114.064L166.094 99.6213L170.757 97.3435Z" fill="#474463"/>
<path opacity="0.1" d="M170.757 97.3435C170.757 97.3435 170.669 101.108 169.792 102.947L169.616 108.287C169.616 108.287 169.878 113.189 170.405 114.152C170.933 115.114 169.264 123.256 169.264 123.256V124.657C169.264 124.657 166.455 125.707 165.657 124.482L166.446 114.064L166.094 99.6213L170.757 97.3435Z" fill="black"/>
<path d="M172.511 85.2709L173.039 86.6717L173.49 89.6466C173.549 90.0617 173.507 90.4847 173.37 90.8808C173.232 91.2769 173.002 91.6346 172.698 91.9244C171.645 92.9745 170.241 95.1624 170.241 95.1624L168.574 90.1728C168.574 90.1728 170.241 89.9097 169.977 88.7719C169.713 87.6341 169.803 85.534 169.803 85.534L172.511 85.2709Z" fill="#FF748E"/>
<path opacity="0.05" d="M172.531 85.2506L173.057 86.6515L173.508 89.6286C173.567 90.0432 173.527 90.4659 173.39 90.8617C173.252 91.2575 173.022 91.6149 172.719 91.9042C171.663 92.9543 170.261 95.1444 170.261 95.1444L168.581 90.148C168.581 90.148 170.25 89.8849 169.986 88.7472C169.722 87.6094 169.81 85.5069 169.81 85.5069L172.531 85.2506Z" fill="black"/>
<path opacity="0.1" d="M164.71 125.451C165.837 127.218 167.589 126.215 167.9 126.017L167.772 125.635L165.224 124.927C165.096 125.139 164.92 125.319 164.71 125.451Z" fill="black"/>
<path d="M161.188 100.766C161.275 101.991 162.766 106.455 162.766 106.455L163.819 110.129C164.572 112.727 164.961 115.416 164.976 118.12C164.949 118.972 165.063 119.822 165.312 120.637C166.015 122.564 164.61 125.188 164.61 125.188C165.839 127.378 167.945 125.889 167.945 125.889V124.488C167.945 124.488 169.614 116.872 169.174 115.384C168.734 113.895 168.561 109.87 168.561 109.87V102.603C169.966 101.206 170.821 99.3509 170.969 97.3772C170.989 97.0894 171.007 96.7881 171.019 96.4778C171.088 94.5035 169.733 92.1875 169.215 91.3622C169.088 91.1621 169.007 91.0497 169.007 91.0497L161.257 94.1167H161.239V94.4203V95.0814L161.188 100.766Z" fill="#474463"/>
<path opacity="0.1" d="M163.821 73.3646C164.059 73.7594 164.239 74.1856 164.358 74.6305C164.787 74.7929 165.244 74.8678 165.703 74.8508C166.161 74.8338 166.612 74.7252 167.027 74.5316C167.136 73.8898 167.391 73.2814 167.772 72.753L163.821 73.3646Z" fill="black"/>
<path d="M165.578 74.6778C167.468 74.6778 169.001 73.1496 169.001 71.2644C169.001 69.3793 167.468 67.8511 165.578 67.8511C163.687 67.8511 162.155 69.3793 162.155 71.2644C162.155 73.1496 163.687 74.6778 165.578 74.6778Z" fill="#DB8B8B"/>
<path opacity="0.1" d="M161.188 95.0747H161.226C164.906 95.8302 169.528 92.0054 169.528 92.0054C169.404 91.7968 169.297 91.5788 169.208 91.3533C169.082 91.1531 169 91.0407 169 91.0407L161.251 94.1078L161.23 94.4136L161.188 95.0747Z" fill="black"/>
<path d="M162.155 77.3041C162.155 77.3041 167.07 74.327 168.649 75.5524L170.845 78.3542C170.845 78.3542 172.25 78.7926 171.988 81.6034L173.041 86.6807L169.884 87.4677C169.884 87.4677 168.042 89.2193 169.535 91.758C169.535 91.758 164.881 95.6098 161.192 94.8206L161.456 90.7079C161.456 90.7079 162.245 88.4301 160.843 86.3299C159.44 84.2297 160.755 82.215 162.072 81.428C162.067 81.419 162.68 78.0911 162.155 77.3041Z" fill="#FF748E"/>
<path d="M161.891 95.1624C161.891 95.1624 160.047 95.5131 159.169 96.914C158.916 97.335 158.606 97.72 158.25 98.0585C158.169 98.1313 158.107 98.2217 158.069 98.3225C158.03 98.4234 158.015 98.5319 158.026 98.6394C158.037 98.7469 158.072 98.8504 158.13 98.9417C158.188 99.0329 158.267 99.1093 158.36 99.1649C159.057 99.5831 160.191 99.8394 161.627 98.6634C164.096 96.6509 161.891 95.1624 161.891 95.1624Z" fill="#DB8B8B"/>
<path opacity="0.1" d="M164.613 78.9681C164.613 78.9681 166.367 78.7927 166.807 83.3438C167.246 87.8949 167.947 88.9473 167.947 88.9473C167.947 88.9473 168.387 91.3105 167.332 92.7114C166.277 94.1123 164.261 97.0894 164.261 97.0894C164.261 97.0894 162.067 97.701 161.627 95.5154L164.349 90.4381C164.349 90.4381 164.786 88.6864 163.733 87.4609C162.68 86.2355 161.891 78.0911 164.613 78.9681Z" fill="black"/>
<path d="M164.437 78.705C164.437 78.705 166.191 78.5296 166.631 83.083C167.07 87.6364 167.772 88.6842 167.772 88.6842C167.772 88.6842 168.223 91.0475 167.158 92.4484C166.094 93.8492 164.096 96.8264 164.096 96.8264C164.096 96.8264 161.902 97.438 161.463 95.2523L164.184 90.175C164.184 90.175 164.624 88.4234 163.569 87.1979C162.513 85.9724 161.715 77.8303 164.437 78.705Z" fill="#FF748E"/>
<path opacity="0.1" d="M162.987 81.9879C162.987 81.9879 162.813 84.702 163.602 86.1905C164.392 87.6791 164.392 89.6039 163.602 90.654" fill="black"/>
<path opacity="0.1" d="M162.549 78.66C162.549 78.66 163.251 77.9607 165.271 77.873C167.291 77.7853 168.166 77.1737 168.166 77.1737" fill="black"/>
<path opacity="0.1" d="M167.431 66.8527C167.966 66.9179 168.574 67.1 168.766 67.5992C168.819 67.7892 168.86 67.9822 168.89 68.1771C169.088 68.9416 169.952 69.3014 170.484 69.8815C170.953 70.3987 171.161 71.0958 171.314 71.7771C171.751 73.7282 171.856 75.7389 171.623 77.7246C171.452 79.1749 171.1 80.605 171.003 82.0621C170.906 83.5192 171.084 85.055 171.882 86.2805C172.227 86.8066 172.68 87.2698 172.924 87.8545C172.421 88.2615 171.727 88.3199 171.077 88.3424C170.326 88.3679 169.57 88.3679 168.811 88.3424C168.414 88.3582 168.019 88.2756 167.661 88.1018C167.408 87.9412 167.2 87.7191 167.057 87.4565C166.624 86.7257 166.516 85.8465 166.534 84.9988C166.552 84.1511 166.687 83.3078 166.703 82.4579C166.748 81.9942 166.644 81.5283 166.408 81.1267C166.19 80.8741 165.943 80.6478 165.672 80.4521C164.732 79.6202 164.41 78.289 164.378 77.0365C164.347 75.7841 164.554 74.5316 164.448 73.2836C164.408 72.7957 164.223 72.2088 163.742 72.1144C163.591 72.1082 163.44 72.0887 163.291 72.0559C162.906 71.9075 162.944 71.3656 162.84 70.9676C162.716 70.5179 162.333 70.1739 162.225 69.7241C161.972 68.6651 163.325 67.3991 164.211 67.0258C165.097 66.6526 166.482 66.7358 167.431 66.8527Z" fill="black"/>
<path d="M167.519 66.6773C168.053 66.7425 168.662 66.9246 168.854 67.4261C168.907 67.6152 168.948 67.8075 168.978 68.0017C169.176 68.7662 170.04 69.126 170.572 69.7061C171.041 70.2233 171.249 70.9203 171.402 71.6017C171.839 73.5551 171.943 75.5681 171.709 77.5559C171.539 79.0063 171.188 80.4364 171.091 81.8957C170.994 83.355 171.172 84.8863 171.97 86.1118C172.315 86.6402 172.768 87.1012 173.012 87.6858C172.509 88.095 171.815 88.1513 171.165 88.1737C170.414 88.1977 169.658 88.1977 168.899 88.1737C168.502 88.1903 168.107 88.1085 167.749 87.9354C167.496 87.7739 167.288 87.5511 167.145 87.2878C166.712 86.557 166.604 85.6778 166.622 84.8301C166.64 83.9824 166.775 83.1392 166.791 82.2914C166.791 81.8282 166.764 81.338 166.495 80.9603C166.278 80.7072 166.031 80.4808 165.76 80.2857C164.82 79.4537 164.498 78.1226 164.466 76.8701C164.435 75.6176 164.642 74.3652 164.536 73.1172C164.495 72.6293 164.311 72.0424 163.83 71.948C163.678 71.9418 163.528 71.9222 163.379 71.8895C162.994 71.7411 163.032 71.1992 162.928 70.8012C162.804 70.3515 162.421 70.0097 162.313 69.5577C162.06 68.4986 163.413 67.2327 164.299 66.8594C165.185 66.4861 166.577 66.5603 167.519 66.6773Z" fill="#464353"/>
<path d="M28.8706 128.792C28.8706 128.792 31.2878 128.718 32.0138 128.201C32.7399 127.684 35.7297 127.065 35.9101 127.895C36.0905 128.725 39.5404 132.019 36.8121 132.041C34.0837 132.064 30.476 131.616 29.7477 131.176C29.0194 130.735 28.8706 128.792 28.8706 128.792Z" fill="#A8A8A8"/>
<path opacity="0.2" d="M36.8617 131.747C34.1356 131.769 30.5256 131.324 29.7996 130.883C29.2472 130.546 29.0262 129.341 28.9518 128.783H28.8706C28.8706 128.783 29.0239 130.726 29.75 131.167C30.476 131.607 34.086 132.053 36.8143 132.032C37.6012 132.032 37.8718 131.747 37.8583 131.333C37.7478 131.592 37.4479 131.747 36.8617 131.747Z" fill="black"/>
<path d="M182.399 97.1659C182.399 97.1659 184.056 97.1142 184.556 96.7589C185.057 96.4036 187.107 95.9809 187.231 96.5498C187.355 97.1187 189.724 99.3807 187.851 99.3965C185.977 99.4122 183.501 99.1042 183.003 98.8028C182.505 98.5015 182.399 97.1659 182.399 97.1659Z" fill="#A8A8A8"/>
<path opacity="0.2" d="M187.885 99.1985C186.013 99.212 183.535 98.9062 183.037 98.6049C182.656 98.38 182.505 97.5458 182.455 97.1636H182.399C182.399 97.1636 182.505 98.497 183.003 98.8005C183.501 99.1041 185.979 99.4076 187.851 99.3942C188.392 99.3942 188.579 99.1985 188.568 98.913C188.493 99.0884 188.288 99.194 187.885 99.1985Z" fill="black"/>
<path opacity="0.1" d="M7.05526 9.72738C9.74884 9.72738 11.9324 7.54983 11.9324 4.86369C11.9324 2.17755 9.74884 0 7.05526 0C4.36168 0 2.1781 2.17755 2.1781 4.86369C2.1781 7.54983 4.36168 9.72738 7.05526 9.72738Z" fill="#6C63FF"/>
<path opacity="0.1" d="M216.753 23.6686C219.446 23.6686 221.63 21.4911 221.63 18.8049C221.63 16.1188 219.446 13.9412 216.753 13.9412C214.059 13.9412 211.876 16.1188 211.876 18.8049C211.876 21.4911 214.059 23.6686 216.753 23.6686Z" fill="#6C63FF"/>
<path opacity="0.1" d="M3.6077 27.4732C5.60018 27.4732 7.2154 25.8624 7.2154 23.8754C7.2154 21.8885 5.60018 20.2777 3.6077 20.2777C1.61522 20.2777 0 21.8885 0 23.8754C0 25.8624 1.61522 27.4732 3.6077 27.4732Z" fill="#6C63FF"/>
<path opacity="0.1" d="M40.1357 7.2363C42.1281 7.2363 43.7434 5.62554 43.7434 3.63857C43.7434 1.65159 42.1281 0.0408325 40.1357 0.0408325C38.1432 0.0408325 36.528 1.65159 36.528 3.63857C36.528 5.62554 38.1432 7.2363 40.1357 7.2363Z" fill="#6C63FF"/>
<path opacity="0.1" d="M188.051 7.68565C190.044 7.68565 191.659 6.07488 191.659 4.08791C191.659 2.10093 190.044 0.490173 188.051 0.490173C186.059 0.490173 184.444 2.10093 184.444 4.08791C184.444 6.07488 186.059 7.68565 188.051 7.68565Z" fill="#6C63FF"/>
<path d="M200.593 145.349C200.593 145.349 201.495 146.527 200.175 148.305C198.856 150.084 197.767 151.584 198.207 152.692C198.207 152.692 200.198 149.391 201.815 149.344C203.431 149.297 202.374 147.336 200.593 145.349Z" fill="#FC6681"/>
<path opacity="0.1" d="M200.593 145.349C200.671 145.463 200.733 145.588 200.775 145.72C202.354 147.572 203.201 149.302 201.677 149.344C200.261 149.385 198.563 151.91 198.155 152.548C198.169 152.597 198.185 152.645 198.205 152.692C198.205 152.692 200.196 149.391 201.812 149.344C203.429 149.297 202.374 147.336 200.593 145.349Z" fill="black"/>
<path d="M202.27 146.851C202.27 147.264 202.223 147.602 202.166 147.602C202.11 147.602 202.063 147.264 202.063 146.851C202.063 146.437 202.121 146.626 202.178 146.626C202.234 146.626 202.27 146.435 202.27 146.851Z" fill="#FFD037"/>
<path d="M202.847 147.345C202.482 147.543 202.171 147.662 202.135 147.613C202.099 147.563 202.383 147.361 202.746 147.163C203.109 146.965 202.971 147.109 202.996 147.163C203.021 147.217 203.213 147.147 202.847 147.345Z" fill="#FFD037"/>
<path d="M195.822 145.349C195.822 145.349 194.92 146.527 196.239 148.305C197.558 150.084 198.647 151.584 198.207 152.692C198.207 152.692 196.214 149.391 194.599 149.344C192.985 149.297 194.038 147.336 195.822 145.349Z" fill="#FC6681"/>
<path opacity="0.1" d="M195.821 145.349C195.743 145.463 195.681 145.588 195.637 145.72C194.058 147.572 193.213 149.302 194.735 149.344C196.151 149.385 197.851 151.91 198.257 152.548C198.243 152.596 198.227 152.645 198.209 152.692C198.209 152.692 196.216 149.391 194.602 149.344C192.987 149.297 194.038 147.336 195.821 145.349Z" fill="black"/>
<path d="M194.142 146.851C194.142 147.264 194.189 147.602 194.248 147.602C194.306 147.602 194.351 147.264 194.351 146.851C194.351 146.437 194.293 146.626 194.234 146.626C194.175 146.626 194.142 146.435 194.142 146.851Z" fill="#FFD037"/>
<path d="M193.567 147.345C193.932 147.543 194.243 147.662 194.277 147.613C194.311 147.563 194.031 147.361 193.666 147.163C193.301 146.965 193.44 147.109 193.418 147.163C193.395 147.217 193.201 147.147 193.567 147.345Z" fill="#FFD037"/>
<path d="M194.43 152.54C194.43 152.54 196.956 152.461 197.716 151.921C198.475 151.381 201.601 150.736 201.79 151.602C201.979 152.468 205.583 155.912 202.733 155.935C199.882 155.957 196.108 155.485 195.35 155.035C194.593 154.586 194.43 152.54 194.43 152.54Z" fill="#A8A8A8"/>
<path opacity="0.2" d="M202.784 155.634C199.932 155.656 196.16 155.184 195.4 154.734C194.823 154.383 194.59 153.122 194.514 152.539H194.43C194.43 152.539 194.59 154.563 195.35 155.031C196.11 155.499 199.882 155.957 202.732 155.93C203.556 155.93 203.84 155.631 203.824 155.2C203.711 155.465 203.395 155.629 202.784 155.634Z" fill="black"/>
<path opacity="0.7" d="M71.3535 28.3254C70.417 28.3254 69.5015 28.6024 68.7228 29.1212C67.9441 29.6401 67.3372 30.3776 66.9789 31.2404C66.6205 32.1033 66.5267 33.0527 66.7094 33.9687C66.8921 34.8847 67.3431 35.7261 68.0053 36.3864C68.6675 37.0468 69.5112 37.4966 70.4297 37.6788C71.3483 37.861 72.3003 37.7675 73.1656 37.4101C74.0308 37.0527 74.7703 36.4474 75.2906 35.6709C75.8109 34.8944 76.0886 33.9814 76.0886 33.0475C76.0886 31.7951 75.5897 30.594 74.7017 29.7085C73.8137 28.8229 72.6093 28.3254 71.3535 28.3254ZM71.3535 29.2406C72.1116 29.2406 72.8528 29.4648 73.4831 29.8848C74.1135 30.3049 74.6048 30.9019 74.8949 31.6004C75.185 32.2989 75.2609 33.0674 75.113 33.809C74.9651 34.5505 74.6001 35.2316 74.064 35.7662C73.5279 36.3008 72.8449 36.6649 72.1013 36.8124C71.3578 36.9598 70.587 36.8841 69.8866 36.5948C69.1862 36.3055 68.5875 35.8156 68.1663 35.1869C67.7451 34.5583 67.5203 33.8192 67.5203 33.0632C67.5203 32.0494 67.9242 31.0771 68.643 30.3602C69.3619 29.6434 70.3369 29.2406 71.3535 29.2406ZM74.0345 31.7253L73.6038 31.2913C73.5828 31.2696 73.5576 31.2523 73.5297 31.2404C73.5018 31.2286 73.4718 31.2225 73.4415 31.2225C73.4112 31.2225 73.3812 31.2286 73.3533 31.2404C73.3254 31.2523 73.3002 31.2696 73.2791 31.2913L70.5734 33.9649L69.4324 32.8091C69.4114 32.7874 69.3862 32.77 69.3583 32.7582C69.3304 32.7464 69.3004 32.7403 69.2701 32.7403C69.2398 32.7403 69.2098 32.7464 69.1819 32.7582C69.154 32.77 69.1288 32.7874 69.1077 32.8091L68.6748 33.2386C68.653 33.2596 68.6356 33.2847 68.6238 33.3125C68.6119 33.3404 68.6058 33.3703 68.6058 33.4005C68.6058 33.4307 68.6119 33.4606 68.6238 33.4885C68.6356 33.5163 68.653 33.5414 68.6748 33.5624L70.411 35.3073C70.432 35.3291 70.4573 35.3464 70.4852 35.3582C70.513 35.37 70.543 35.3761 70.5734 35.3761C70.6037 35.3761 70.6337 35.37 70.6615 35.3582C70.6894 35.3464 70.7147 35.3291 70.7357 35.3073L74.0345 32.0424C74.0563 32.0214 74.0737 31.9962 74.0855 31.9684C74.0974 31.9406 74.1035 31.9107 74.1035 31.8805C74.1035 31.8502 74.0974 31.8203 74.0855 31.7925C74.0737 31.7647 74.0563 31.7395 74.0345 31.7186V31.7253Z" fill="#3ACC6C"/>
<path opacity="0.7" d="M18.9336 52.2324C18.0219 52.4436 17.1934 52.9195 16.5528 53.6C15.9122 54.2805 15.4882 55.135 15.3343 56.0557C15.1805 56.9764 15.3037 57.9219 15.6883 58.7728C16.073 59.6237 16.702 60.3418 17.4957 60.8364C18.2894 61.331 19.2123 61.58 20.1479 61.5518C21.0834 61.5237 21.9896 61.2197 22.752 60.6782C23.5143 60.1367 24.0987 59.3821 24.4312 58.5096C24.7637 57.6371 24.8295 56.6859 24.6202 55.7762C24.481 55.1707 24.2233 54.5986 23.8619 54.0926C23.5005 53.5866 23.0426 53.1567 22.5143 52.8275C21.9861 52.4983 21.3979 52.2763 20.7834 52.1742C20.169 52.072 19.5404 52.0918 18.9336 52.2324ZM19.141 53.1318C19.8801 52.9598 20.6537 53.0105 21.3639 53.2774C22.074 53.5442 22.6888 54.0153 23.1302 54.6309C23.5716 55.2466 23.8199 55.979 23.8435 56.7354C23.8671 57.4919 23.665 58.2383 23.2629 58.8801C22.8607 59.5219 22.2765 60.0302 21.5844 60.3406C20.8923 60.6511 20.1233 60.7496 19.375 60.6238C18.6266 60.498 17.9326 60.1535 17.3807 59.634C16.8289 59.1145 16.4441 58.4433 16.2752 57.7054C16.0495 56.7201 16.2244 55.6858 16.7614 54.8287C17.2985 53.9716 18.1541 53.3615 19.141 53.1318ZM22.3136 54.9532L21.795 54.6204C21.7696 54.604 21.7413 54.5928 21.7115 54.5875C21.6818 54.5823 21.6513 54.583 21.6218 54.5897C21.5924 54.5964 21.5646 54.609 21.5401 54.6266C21.5156 54.6442 21.4949 54.6666 21.4793 54.6923L19.45 57.9033L18.0768 57.0376C18.0514 57.0212 18.0231 57.01 17.9933 57.0048C17.9636 56.9995 17.9331 57.0002 17.9037 57.0069C17.8742 57.0137 17.8464 57.0262 17.8219 57.0438C17.7974 57.0615 17.7768 57.0838 17.7611 57.1096L17.4341 57.6267C17.4177 57.652 17.4065 57.6803 17.4012 57.7099C17.3959 57.7396 17.3967 57.77 17.4034 57.7994C17.4101 57.8287 17.4227 57.8565 17.4404 57.8809C17.4581 57.9053 17.4805 57.9259 17.5063 57.9415L19.5898 59.2525C19.6152 59.2692 19.6437 59.2807 19.6737 59.2862C19.7037 59.2916 19.7344 59.291 19.7641 59.2843C19.7939 59.2775 19.8219 59.2649 19.8466 59.2471C19.8712 59.2292 19.892 59.2066 19.9077 59.1805L22.388 55.2612C22.4045 55.2361 22.4159 55.2079 22.4213 55.1784C22.4268 55.1488 22.4262 55.1185 22.4197 55.0891C22.4132 55.0598 22.4008 55.032 22.3834 55.0075C22.3659 54.983 22.3437 54.9622 22.3181 54.9464L22.3136 54.9532Z" fill="#3ACC6C"/>
<path opacity="0.7" d="M140.367 29.009C139.43 29.009 138.515 29.2859 137.736 29.8048C136.957 30.3236 136.35 31.0611 135.992 31.924C135.634 32.7868 135.54 33.7362 135.722 34.6522C135.905 35.5682 136.356 36.4096 137.018 37.07C137.681 37.7304 138.524 38.1801 139.443 38.3623C140.361 38.5445 141.313 38.451 142.179 38.0936C143.044 37.7362 143.783 37.1309 144.304 36.3544C144.824 35.5779 145.102 34.6649 145.102 33.731C145.102 32.4786 144.603 31.2776 143.715 30.392C142.827 29.5065 141.622 29.009 140.367 29.009ZM140.367 29.9241C141.125 29.9241 141.866 30.1483 142.496 30.5684C143.127 30.9884 143.618 31.5854 143.908 32.2839C144.198 32.9824 144.274 33.751 144.126 34.4925C143.978 35.234 143.613 35.9151 143.077 36.4497C142.541 36.9843 141.858 37.3484 141.114 37.4959C140.371 37.6434 139.6 37.5677 138.9 37.2784C138.199 36.989 137.601 36.4991 137.179 35.8705C136.758 35.2418 136.533 34.5028 136.533 33.7467C136.533 32.7329 136.937 31.7606 137.656 31.0438C138.375 30.3269 139.35 29.9241 140.367 29.9241ZM143.048 32.4088L142.617 31.9749C142.596 31.9531 142.571 31.9358 142.543 31.924C142.515 31.9121 142.485 31.906 142.455 31.906C142.424 31.906 142.394 31.9121 142.366 31.924C142.338 31.9358 142.313 31.9531 142.292 31.9749L139.586 34.6484L138.443 33.4994C138.422 33.4776 138.397 33.4603 138.369 33.4485C138.341 33.4367 138.311 33.4306 138.281 33.4306C138.251 33.4306 138.221 33.4367 138.193 33.4485C138.165 33.4603 138.14 33.4776 138.119 33.4994L137.688 33.9334C137.666 33.9543 137.649 33.9795 137.637 34.0073C137.625 34.0351 137.619 34.065 137.619 34.0953C137.619 34.1255 137.625 34.1554 137.637 34.1832C137.649 34.211 137.666 34.2362 137.688 34.2572L139.424 36.0021C139.445 36.0238 139.47 36.0411 139.498 36.053C139.526 36.0648 139.556 36.0709 139.586 36.0709C139.617 36.0709 139.647 36.0648 139.675 36.053C139.703 36.0411 139.728 36.0238 139.749 36.0021L143.048 32.7371C143.069 32.7161 143.087 32.691 143.099 32.6632C143.11 32.6354 143.117 32.6055 143.117 32.5752C143.117 32.545 143.11 32.5151 143.099 32.4873C143.087 32.4595 143.069 32.4343 143.048 32.4133V32.4088Z" fill="#3ACC6C"/>
<path opacity="0.7" d="M194.692 52.3291C193.758 52.2569 192.824 52.4622 192.008 52.9191C191.192 53.3761 190.529 54.0642 190.105 54.8964C189.68 55.7286 189.513 56.6676 189.623 57.5947C189.734 58.5218 190.118 59.3955 190.726 60.1052C191.334 60.8149 192.14 61.3288 193.041 61.582C193.942 61.8352 194.899 61.8163 195.789 61.5278C196.679 61.2392 197.464 60.6938 198.044 59.9607C198.623 59.2275 198.972 58.3394 199.046 57.4086C199.095 56.7899 199.021 56.1677 198.829 55.5774C198.636 54.9872 198.329 54.4405 197.925 53.9688C197.52 53.497 197.027 53.1094 196.472 52.828C195.917 52.5467 195.312 52.3771 194.692 52.3291ZM194.62 53.2398C195.376 53.2965 196.099 53.5759 196.697 54.0427C197.294 54.5094 197.739 55.1425 197.975 55.8617C198.211 56.5809 198.228 57.3538 198.024 58.0826C197.819 58.8113 197.402 59.4631 196.825 59.9553C196.249 60.4475 195.539 60.758 194.785 60.8474C194.032 60.9369 193.269 60.8012 192.592 60.4577C191.916 60.1142 191.358 59.5782 190.987 58.9177C190.617 58.2572 190.451 57.502 190.511 56.7476C190.55 56.2481 190.687 55.7611 190.914 55.3145C191.141 54.8678 191.455 54.4702 191.836 54.1444C192.218 53.8186 192.66 53.571 193.138 53.4158C193.615 53.2606 194.119 53.2008 194.62 53.2398ZM197.1 55.9246L196.703 55.4591C196.684 55.4359 196.66 55.4167 196.634 55.4027C196.607 55.3887 196.578 55.3802 196.548 55.3776C196.518 55.3751 196.487 55.3786 196.459 55.388C196.43 55.3974 196.403 55.4124 196.381 55.4321L193.479 57.8898L192.428 56.6554C192.409 56.6318 192.385 56.6123 192.358 56.5981C192.331 56.5839 192.302 56.5752 192.271 56.5727C192.241 56.5702 192.211 56.5738 192.182 56.5834C192.153 56.593 192.126 56.6083 192.103 56.6284L191.637 57.0241C191.613 57.0434 191.594 57.0671 191.58 57.0938C191.567 57.1205 191.558 57.1497 191.556 57.1797C191.554 57.2097 191.557 57.2398 191.567 57.2683C191.577 57.2968 191.592 57.3231 191.612 57.3457L193.206 59.2188C193.225 59.242 193.249 59.2612 193.275 59.2752C193.302 59.2892 193.331 59.2977 193.361 59.3002C193.391 59.3028 193.422 59.2992 193.45 59.2899C193.479 59.2805 193.506 59.2655 193.528 59.2457L197.073 56.2461C197.096 56.2271 197.116 56.2035 197.13 56.1769C197.144 56.1502 197.152 56.121 197.155 56.0911C197.157 56.0611 197.154 56.0309 197.144 56.0023C197.135 55.9737 197.12 55.9473 197.1 55.9246Z" fill="#3ACC6C"/>
</g>
<defs>
<linearGradient id="paint0_linear" x1="165.765" y1="129.348" x2="165.765" y2="65.7936" gradientUnits="userSpaceOnUse">
<stop stop-color="#808080" stop-opacity="0.25"/>
<stop offset="0.54" stop-color="#808080" stop-opacity="0.12"/>
<stop offset="1" stop-color="#808080" stop-opacity="0.1"/>
</linearGradient>
<clipPath id="clip0">
<rect width="238" height="174" fill="white"/>
</clipPath>
</defs>
</svg>
