<svg width="238" height="174" viewBox="0 0 238 174" fill="none" xmlns="http://www.w3.org/2000/svg">
<path d="M119.251 148.052C103.125 148.052 87.4979 142.945 75.0325 133.601C62.567 124.258 54.0344 111.256 50.8885 96.8101C47.7425 82.3647 50.1778 67.3698 57.7795 54.3805C65.3812 41.3912 77.679 31.2111 92.5773 25.5748C107.476 19.9385 124.053 19.1947 139.484 23.4702C154.916 27.7456 168.247 36.7758 177.206 49.022C186.165 61.2683 190.198 75.9729 188.617 90.6304C187.036 105.288 179.94 118.991 168.538 129.406C162.08 135.336 154.399 140.037 145.939 143.238C137.479 146.439 128.408 148.075 119.251 148.052ZM119.251 21.2181C81.1126 21.2181 50.0848 49.5571 50.0848 84.3904C50.0848 119.224 81.1126 147.562 119.251 147.562C157.389 147.562 188.417 119.224 188.417 84.3904C188.417 49.5571 157.389 21.2181 119.251 21.2181Z" fill="#CCCCCC"/>
<path d="M145.132 157.599V93.4634H92.8682V157.599H145.132Z" fill="#2F2E41"/>
<path d="M154.11 91.5051H83.8896V116.964H154.11V91.5051Z" fill="#3F3D56"/>
<path d="M154.11 119.901H83.8896V145.359H154.11V119.901Z" fill="#3F3D56"/>
<path d="M154.11 148.297H83.8896V173.755H154.11V148.297Z" fill="#3F3D56"/>
<path d="M154.11 102.3H83.8896V106.216H154.11V102.3Z" fill="#4DACE1"/>
<path d="M154.11 130.695H83.8896V134.612H154.11V130.695Z" fill="#4DACE1"/>
<path d="M154.11 159.091H83.8896V163.008H154.11V159.091Z" fill="#4DACE1"/>
<path d="M140.441 96.6458C141.33 96.6458 142.049 95.9882 142.049 95.177C142.049 94.3658 141.33 93.7083 140.441 93.7083C139.553 93.7083 138.833 94.3658 138.833 95.177C138.833 95.9882 139.553 96.6458 140.441 96.6458Z" fill="#4DACE1"/>
<path d="M146.07 96.6458C146.958 96.6458 147.678 95.9882 147.678 95.177C147.678 94.3658 146.958 93.7083 146.07 93.7083C145.182 93.7083 144.462 94.3658 144.462 95.177C144.462 95.9882 145.182 96.6458 146.07 96.6458Z" fill="#4DACE1"/>
<path d="M151.698 96.6458C152.586 96.6458 153.306 95.9882 153.306 95.177C153.306 94.3658 152.586 93.7083 151.698 93.7083C150.81 93.7083 150.09 94.3658 150.09 95.177C150.09 95.9882 150.81 96.6458 151.698 96.6458Z" fill="#4DACE1"/>
<path d="M140.441 124.552C141.33 124.552 142.049 123.894 142.049 123.083C142.049 122.272 141.33 121.615 140.441 121.615C139.553 121.615 138.833 122.272 138.833 123.083C138.833 123.894 139.553 124.552 140.441 124.552Z" fill="#4DACE1"/>
<path d="M146.07 124.552C146.958 124.552 147.678 123.894 147.678 123.083C147.678 122.272 146.958 121.615 146.07 121.615C145.182 121.615 144.462 122.272 144.462 123.083C144.462 123.894 145.182 124.552 146.07 124.552Z" fill="#4DACE1"/>
<path d="M151.698 124.552C152.586 124.552 153.306 123.894 153.306 123.083C153.306 122.272 152.586 121.615 151.698 121.615C150.81 121.615 150.09 122.272 150.09 123.083C150.09 123.894 150.81 124.552 151.698 124.552Z" fill="#4DACE1"/>
<path d="M140.441 152.458C141.33 152.458 142.049 151.801 142.049 150.99C142.049 150.178 141.33 149.521 140.441 149.521C139.553 149.521 138.833 150.178 138.833 150.99C138.833 151.801 139.553 152.458 140.441 152.458Z" fill="#4DACE1"/>
<path d="M146.07 152.458C146.958 152.458 147.678 151.801 147.678 150.99C147.678 150.178 146.958 149.521 146.07 149.521C145.182 149.521 144.462 150.178 144.462 150.99C144.462 151.801 145.182 152.458 146.07 152.458Z" fill="#4DACE1"/>
<path d="M151.698 152.458C152.586 152.458 153.306 151.801 153.306 150.99C153.306 150.178 152.586 149.521 151.698 149.521C150.81 149.521 150.09 150.178 150.09 150.99C150.09 151.801 150.81 152.458 151.698 152.458Z" fill="#4DACE1"/>
<path d="M238 173.51H0V174H238V173.51Z" fill="#3F3D56"/>
<path d="M64.8279 66.3545V111.884C64.8277 112.836 64.4133 113.75 63.6759 114.423C62.9385 115.097 61.9384 115.475 60.8955 115.475H41.5236C40.4804 115.476 39.4799 115.097 38.7422 114.424C38.0044 113.75 37.5898 112.837 37.5895 111.884V66.3545C37.5898 65.4017 38.0044 64.4881 38.7422 63.8146C39.4799 63.141 40.4804 62.7627 41.5236 62.7628H43.8735C43.7581 63.022 43.7142 63.3031 43.7456 63.5814C43.777 63.8597 43.8828 64.1267 44.0537 64.3589C44.2245 64.5911 44.4552 64.7815 44.7255 64.9132C44.9957 65.0449 45.2973 65.114 45.6036 65.1143H56.6482C56.9545 65.114 57.256 65.0449 57.5263 64.9132C57.7966 64.7815 58.0272 64.5911 58.1981 64.3589C58.3689 64.1267 58.4747 63.8597 58.5061 63.5814C58.5376 63.3031 58.4936 63.022 58.3783 62.7628H60.8955C61.9384 62.763 62.9385 63.1415 63.6759 63.815C64.4133 64.4885 64.8277 65.402 64.8279 66.3545Z" fill="#E6E6E6"/>
<path d="M63.5374 71.4573H38.8798V102.791H63.5374V71.4573Z" fill="white"/>
<path d="M55.7224 93.0032H45.8809V93.5169H55.7224V93.0032Z" fill="#E6E6E6"/>
<path d="M61.099 94.8892H45.871V95.4028H61.099V94.8892Z" fill="#4DACE1"/>
<path d="M57.8214 96.666H45.871V97.1796H57.8214V96.666Z" fill="#E6E6E6"/>
<path d="M52.9007 98.4429H45.871V98.9565H52.9007V98.4429Z" fill="#E6E6E6"/>
<path d="M56.4155 100.22H45.871V100.733H56.4155V100.22Z" fill="#E6E6E6"/>
<path d="M42.5425 92.8555H41.4177V93.8828H42.5425V92.8555Z" fill="#E6E6E6"/>
<path d="M42.5425 94.6323H41.4177V95.6596H42.5425V94.6323Z" fill="#4DACE1"/>
<path d="M42.5425 96.4092H41.4177V97.4365H42.5425V96.4092Z" fill="#E6E6E6"/>
<path d="M42.5425 98.186H41.4177V99.2133H42.5425V98.186Z" fill="#E6E6E6"/>
<path d="M42.5425 99.9629H41.4177V100.99H42.5425V99.9629Z" fill="#E6E6E6"/>
<path d="M56.2164 75.374H46.3004V84.4307H56.2164V75.374Z" fill="#E6E6E6"/>
<path d="M151.965 0.0349731H86.0634V38.5836H151.965V0.0349731Z" fill="#E6E6E6"/>
<path d="M145.67 10.8187H91.0314V29.6763H145.67V10.8187Z" fill="white"/>
<path d="M114.1 14.0858H100.986V14.7702H114.1V14.0858Z" fill="#E6E6E6"/>
<path d="M121.264 16.5987H100.973V17.2831H121.264V16.5987Z" fill="#4DACE1"/>
<path d="M116.896 18.9662H100.973V19.6506H116.896V18.9662Z" fill="#E6E6E6"/>
<path d="M110.34 21.3338H100.973V22.0182H110.34V21.3338Z" fill="#E6E6E6"/>
<path d="M115.023 23.7013H100.973V24.3857H115.023V23.7013Z" fill="#E6E6E6"/>
<path d="M96.5382 13.889H95.0396V15.2578H96.5382V13.889Z" fill="#E6E6E6"/>
<path d="M96.5382 16.2565H95.0396V17.6253H96.5382V16.2565Z" fill="#4DACE1"/>
<path d="M96.5382 18.624H95.0396V19.9928H96.5382V18.624Z" fill="#E6E6E6"/>
<path d="M96.5382 20.9916H95.0396V22.3604H96.5382V20.9916Z" fill="#E6E6E6"/>
<path d="M96.5382 23.3591H95.0396V24.7279H96.5382V23.3591Z" fill="#E6E6E6"/>
<path d="M142.989 13.1815H129.572V25.4354H142.989V13.1815Z" fill="#E6E6E6"/>
<path d="M151.937 0H86.0353V2.55711H151.937V0Z" fill="#4DACE1"/>
<path d="M88.1158 1.82066C88.4262 1.82066 88.6778 1.59085 88.6778 1.30736C88.6778 1.02388 88.4262 0.794067 88.1158 0.794067C87.8054 0.794067 87.5538 1.02388 87.5538 1.30736C87.5538 1.59085 87.8054 1.82066 88.1158 1.82066Z" fill="white"/>
<path d="M90.0856 1.82066C90.3959 1.82066 90.6476 1.59085 90.6476 1.30736C90.6476 1.02388 90.3959 0.794067 90.0856 0.794067C89.7752 0.794067 89.5236 1.02388 89.5236 1.30736C89.5236 1.59085 89.7752 1.82066 90.0856 1.82066Z" fill="white"/>
<path d="M92.0552 1.82066C92.3655 1.82066 92.6171 1.59085 92.6171 1.30736C92.6171 1.02388 92.3655 0.794067 92.0552 0.794067C91.7448 0.794067 91.4932 1.02388 91.4932 1.30736C91.4932 1.59085 91.7448 1.82066 92.0552 1.82066Z" fill="white"/>
<path d="M196.095 72.1666H180.014V79.7551H196.095V72.1666Z" fill="#E6E6E6"/>
<path d="M196.095 99.3384H180.014V106.927H196.095V99.3384Z" fill="#E6E6E6"/>
<path d="M188.054 101.786C195.455 101.786 201.455 96.3066 201.455 89.5468C201.455 82.7871 195.455 77.3072 188.054 77.3072C180.653 77.3072 174.653 82.7871 174.653 89.5468C174.653 96.3066 180.653 101.786 188.054 101.786Z" fill="#E6E6E6"/>
<path d="M188.054 99.0937C193.827 99.0937 198.507 94.8194 198.507 89.5468C198.507 84.2742 193.827 79.9999 188.054 79.9999C182.281 79.9999 177.602 84.2742 177.602 89.5468C177.602 94.8194 182.281 99.0937 188.054 99.0937Z" fill="white"/>
<path d="M192.738 86.931H184.631V87.3541H192.738V86.931Z" fill="#E2E2E2"/>
<path d="M197.167 88.4845H184.623V88.9076H197.167V88.4845Z" fill="#6C63FF"/>
<path d="M194.467 89.9481H184.623V90.3712H194.467V89.9481Z" fill="#E2E2E2"/>
<path d="M190.414 91.4118H184.623V91.8349H190.414V91.4118Z" fill="#E2E2E2"/>
<path d="M193.309 92.8754H184.623V93.2985H193.309V92.8754Z" fill="#E2E2E2"/>
<path d="M181.882 86.8094H180.955V87.6556H181.882V86.8094Z" fill="#E2E2E2"/>
<path d="M181.882 88.2729H180.955V89.1192H181.882V88.2729Z" fill="#4DACE1"/>
<path d="M181.882 89.7366H180.955V90.5827H181.882V89.7366Z" fill="#E2E2E2"/>
<path d="M181.882 91.2003H180.955V92.0464H181.882V91.2003Z" fill="#E2E2E2"/>
<path d="M181.882 92.6638H180.955V93.51H181.882V92.6638Z" fill="#E2E2E2"/>
</svg>
